<?xml version="1.0" encoding="UTF-8" standalone="no"?>
<svg width="512px" height="237px" viewBox="0 0 512 237" version="1.1" xmlns="http://www.w3.org/2000/svg" xmlns:xlink="http://www.w3.org/1999/xlink" xmlns:sketch="http://www.bohemiancoding.com/sketch/ns">
    <!-- Generator: Sketch 3.1 (8751) - http://www.bohemiancoding.com/sketch -->
    <title>Logo inverted dark@1x</title>
    <desc>Created with Sketch.</desc>
    <defs></defs>
    <g id="Page-1" stroke="none" stroke-width="1" fill="none" fill-rule="evenodd" sketch:type="MSPage">
        <g id="Logo-inverted-dark" sketch:type="MSArtboardGroup">
            <g id="Imported-Layers" sketch:type="MSLayerGroup" transform="translate(26.000000, 48.000000)">
                <path d="M-0.495699531,0.177762712 L68.8260516,0.177762712 L68.8260516,15.4748475 L15.3549859,15.4748475 L15.3549859,52.8508475 L57.1554085,52.8508475 L57.1554085,68.1479322 L15.3549859,68.1479322 L15.3549859,123.602305 L-0.495699531,123.602305 L-0.495699531,0.177762712" id="Fill-1" fill="#FFFFFF" sketch:type="MSShapeGroup"></path>
                <path d="M75.3906526,80.1430508 C75.3906526,55.1114576 94.3758263,35.2931525 120.675531,35.2931525 C146.801338,35.2931525 165.786512,55.1114576 165.786512,80.1430508 C165.786512,105.174644 146.801338,124.992949 120.675531,124.992949 C94.3758263,124.992949 75.3906526,105.174644 75.3906526,80.1430508 L75.3906526,80.1430508 Z M150.285793,80.1430508 C150.285793,62.9324746 138.441254,49.3731525 120.675531,49.3731525 C102.909808,49.3731525 90.8913709,62.9324746 90.8913709,80.1430508 C90.8913709,97.3536271 102.909808,110.91078 120.675531,110.91078 C138.441254,110.91078 150.285793,97.3536271 150.285793,80.1430508 L150.285793,80.1430508 Z" id="Fill-2" fill="#FFFFFF" sketch:type="MSShapeGroup"></path>
                <path d="M178.991793,80.1430508 C178.991793,55.1114576 197.976967,35.2931525 224.276671,35.2931525 C250.404653,35.2931525 269.387653,55.1114576 269.387653,80.1430508 C269.387653,105.174644 250.404653,124.992949 224.276671,124.992949 C197.976967,124.992949 178.991793,105.174644 178.991793,80.1430508 L178.991793,80.1430508 Z M253.886934,80.1430508 C253.886934,62.9324746 242.042394,49.3731525 224.276671,49.3731525 C206.513122,49.3731525 194.494685,62.9324746 194.494685,80.1430508 C194.494685,97.3536271 206.513122,110.91078 224.276671,110.91078 C242.042394,110.91078 253.886934,97.3536271 253.886934,80.1430508 L253.886934,80.1430508 Z" id="Fill-3" fill="#FFFFFF" sketch:type="MSShapeGroup"></path>
                <path d="M374.940784,80.1430508 C374.940784,54.9357288 394.273751,35.2931525 418.658418,35.2931525 C443.043085,35.2931525 460.808808,52.8508475 461.156601,83.7943051 L390.443676,83.7943051 C391.83485,99.2649492 403.853286,110.91078 419.703972,110.91078 C430.676854,110.91078 439.560803,106.04461 445.134192,100.482034 L454.711554,110.91078 C447.223127,118.733966 434.856897,124.992949 419.703972,124.992949 C393.925958,124.992949 374.940784,105.174644 374.940784,80.1430508 L374.940784,80.1430508 Z M391.139263,70.755661 L444.262535,70.755661 C442.171427,56.5021017 431.024648,48.8524746 417.788934,49.0260339 C405.072737,49.0260339 394.273751,57.5456271 391.139263,70.755661 L391.139263,70.755661 Z" id="Fill-4" fill="#FFFFFF" sketch:type="MSShapeGroup"></path>
                <path d="M320.987155,125.383458 L326.738789,114.377627 L315.192047,114.377627 L320.400254,124.378983 L320.987155,125.383458" id="Fill-5" fill="#D51E48" sketch:type="MSShapeGroup"></path>
                <path d="M346.952108,75.7042712 L367.111085,37.1328814 L274.971911,37.1328814 L295.054808,75.7042712 L346.952108,75.7042712" id="Fill-6" fill="#D51E48" sketch:type="MSShapeGroup"></path>
                <path d="M331.068817,106.090169 L341.176563,86.7534915 L300.808615,86.7534915 L310.877235,106.090169 L331.068817,106.090169" id="Fill-7" fill="#D51E48" sketch:type="MSShapeGroup"></path>
            </g>
        </g>
    </g>
</svg>